<svg xmlns="http://www.w3.org/2000/svg" height="250.95" viewBox="0 0 492.51853 566.97228" width="218">
 <g transform="matrix(1.7526 0 0 1.7526 2.0468 2.4717)">
  <path d="m0 0v2.1094 94.922c0 148.96 138.22 223.36 138.22 223.36l0.9961 0.52734 0.99609-0.52734s138.22-74.398 138.22-223.36v-94.922l0.01-2.108h-2.11-274.22-2.11z"/>
   <path fill="#a51c30" d="m4.2188 4.2188h270v92.812c0 143.23-129.44 215.97-135 219.02-5.5557-3.0586-135-75.795-135-219.02v-92.812z"/>
   <path d="m48.207 16.709c-0.6367-0.01381-1.1711 0.74514-1.7637 1.0391-3.1001 1.4238-6.2921 0.30878-9.7773 0.77734l-2.6211 0.88086c-0.71364-0.0804-1.2571-0.5689-1.9707-0.64844-2.5425 0-4.9397-0.4652-7.4688-0.07617-1.9054-0.29912-3.7996-0.54496-5.3164-1.6602-1.0227-0.0804-0.94877 1.3627-1.8945 1.4258-0.71364 0-1.4422 0.23373-2.1523 0.07813-0.94965-0.0804-1.7508 0.40116-2.1523 1.1152l-0.234 4.669c0 0.32505-0.23284 0.71478-0.54492 0.80469-1.8293 0.07953-3.9851-0.18426-4.6953 1.8145-0.15604 0.86969-0.39974 1.9737 0.23438 2.6973 1.0357 1.0253 2.6176 1.1166 4.0449 1.0371 1.0357 0.15561 0.80469 1.3348 0.80469 2.0488 0.16901 3.9663-0.31208 7.781 0 11.982-0.46813 2.0618-3.088 0.16794-4.2793 1.4258-0.48152 0.638-0.88466 1.4412-0.80469 2.2305-0.079969 1.1161 0.23603 2.0604 1.4277 2.541 1.1947 0.4651 2.554 0.08943 3.6563 0.72656 0.5576 1.8258-0.38703 4.3468 0.80469 6.0957 0.63713 0.55847 1.413 0.7232 2.2031 0.80273 2.463 0 4.7748 0.40417 7.1582-0.1543 2.466 0.07694 4.9769-0.31199 7.4434 0.07617 0.63368 0.24638 1.5182 0.15782 1.7637 0.96094 1.1018 0.71408 2.5429 1.259 3.8906 0.54492 0.71364-0.63368 1.1791-1.5057 2.0488-1.7383l3.9688 0.15625c1.1018-0.48066 2.4505-0.31186 3.5527-0.15625 2.0614 0.07694 4.1392 0.07694 6.1211 0 1.0257-0.15561 2.1381-0.25864 3.0078-0.88281 1.1917-2.1509-0.41578-4.6804 0.85547-6.7422 1.2712-0.31122 2.6987 0.38928 3.7344-0.57031 0.86969-0.71321 1.2205-1.7374 1.0645-2.8535-0.71364-1.659-2.6322-1.894-4.2285-1.8145-0.71364-0.15561-0.85914-0.94544-1.0117-1.5039-0.16944-3.5643 0.05435-6.7559 0.13086-10.244 0.39162-1.1161-0.31093-2.1402 0.49219-3.0859 1.1783-0.86968 2.9315-0.07998 3.8906-1.4277 0.06311-0.88352 0.47756-2.32-0.38867-3.0332-0.79318-0.86709-2.0746-0.7793-3.1133-0.7793-2.2935-1.6737 0.08125-4.0582-1.2695-6.1191-1.0223-0.94662-2.6328-1.0107-3.8906-0.70117-0.86623-0.06311-1.4912-0.7921-2.0488-1.4258-0.23644-0.21785-0.46159-0.30818-0.67383-0.3125zm56.123 0.25977c-0.0899 0.0078-0.18055 0.04787-0.28516 0.07813-3.6413 2.8373-8.884 0.634-13.176 1.6602-0.48152 0.07608-0.79168 0.63537-1.4258 0.4668-3.3326-1.8163-7.382-0.15932-10.867-1.0117-1.5168-0.09336-2.8809-1.5305-4.3047-0.72656-0.63713 2.2036-3.2423 0.45412-4.7461 1.0117-2.619 1.1014-0.87154 3.9578-1.3496 6.0957-0.88309 1.6728-3.113 0.10342-4.3047 1.4512-0.63713 0.47807-0.85708 1.2599-0.93359 2.127 0.15604 3.0863 3.8907 1.3513 5.3945 2.9316-0.38859 1.9045 0.23191 3.9014-0.15625 5.5742-0.23255 2.775 0.47828 5.4732 0.15625 8.0918-1.3512 1.4273-4.2788-0.08843-5.0059 2.2051-0.62417 0.95959-0.01128 1.9827 0.4668 2.8516 1.0391 0.88006 2.3852 1.0379 3.8125 0.96094 1.3478 1.2717 0.57193 3.2516 0.64844 5.0039 0.15604 0.62071-0.16893 1.2588 0.38867 1.8164 1.6598 0.55847 3.4989 0.57031 5.2383 0.57031 3.8868 0 7.3806-0.0089 10.945 0.15625 1.8288-0.4772 2.9406 1.4278 4.6934 1.5039 1.6594 0.23601 1.9073-2.0647 3.5801-1.6602 0 0 8.0918 0.07899 8.0918 0.07813 1.5833 0.08991 3.1512-0.08926 4.668 0.15625 1.5699-0.32505 3.4764 0.30728 4.4355-0.96094 0.5442-1.8284 0.31237-3.7311 0.54492-5.627 0.4811-1.5933 2.6192-0.56087 3.7344-1.2715 0.86968-0.32505 1.426-1.101 1.582-1.9707 0.32203-1.1913-0.46632-2.0749-1.1934-2.8789-0.94619-0.54377-1.9687-0.23425-3.0078-0.4668-0.63411-0.16858-0.85407-0.80302-0.9336-1.3477 0.0795-2.3099-0.32679-4.8372 0.1543-7.0547-0.15604-1.9045-0.24552-3.7478 0-5.5762l0.3125-0.4668c1.2712-0.32246 2.7752 0.16842 3.7344-0.77734 0.63411-0.88006 1.1025-2.0764 0.54492-3.0352-0.48109-1.9054-2.6196-1.4146-4.0469-1.6602-1.3478-0.63454-0.61969-2.0627-0.69922-3.1641 0-1.0391 0.45521-2.4748-0.72656-3.2676-1.0357-0.4651-2.2946-0.19547-3.3203-0.12891-1.4813 0.36396-1.2959-1.8584-2.6445-1.7383zm-62.478 54.203c-0.72661 0.11498-0.90372 1.4492-1.6074 1.7129-1.5967 0.54463-3.577-0.46808-4.9277 0.80273-0.79015 1.6601 0.15574 3.5661-0.23242 5.3945-0.23255 1.1161-1.5852 0.62164-2.4648 0.70117-1.3478 0-2.6863 0.32095-3.3965 1.4258-0.23601 0.71062-0.3257 1.5055-0.15625 2.3086 0.71364 1.5803 2.6974 1.5052 4.2012 1.8164 0.5576 0 1.18-0.14126 1.582 0.33594 0.23212 2.297 0.07628 4.4494 0.15625 6.666-0.32549 1.5042 0.07607 3.3175 0 4.9004-0.07997 0.63454-0.24898 1.3623 0 1.9199-0.07997 0.47807-0.14357 1.0357-0.70117 1.1152-1.1152 0.15648-2.3999-0.32322-3.3457 0.23438-0.79015 0.24638-1.3351 0.94499-1.6602 1.6582-0.15604 0.71408-0.16923 1.5172 0.15625 2.1543 1.1783 1.4247 3.0081 1.1174 4.668 1.2695 1.6728 0.40199 0.88409 2.5417 1.0371 3.8125l0.15625 2.6191c0.48109 1.6598 2.5413 1.1925 3.8125 1.6602l2.6973-0.31055c1.7528 0.48153 3.8015-0.32646 5.5508 0.0781 1.9849-0.55761 4.1107-0.23438 6.3281-0.23438 1.3508-0.089 2.7739-0.10124 4.2012-0.18164 1.1917 0.80744 2.4774 1.8277 3.9941 1.3496 1.2578-1.1014 3.0747-1.338 4.668-1.0898l3.3457-0.18164 0.62109 0.25976 4.0469-0.15625c2.4664 0.0804 5.0046-0.25912 7.7031-0.10351l2.3086-0.15626 2.0488-0.54492c1.4273-1.3469 0.49411-3.5667 0.80273-5.3164 0.24898-0.63714 0.06532-1.5038 0.85547-1.7363 1.6728-0.24552 3.9019-0.0754 4.5391-1.998 0.16598-0.77632 0.24531-1.674-0.15625-2.3086-0.71365-0.78929-1.5819-1.1151-2.541-1.3477-0.9462 0.15648-2.294 0.24664-2.8516-0.62305 0.40156-4.7565-0.15574-8.8071 0.23242-13.564 0 0 0.54492-0.72374 0.54492-0.72461 1.5799-0.32505 3.5797-0.07963 4.3828-1.8164 0.31208-0.78928 0.06542-1.7488-0.49219-2.4629-0.94576-1.7523-3.2424-0.31048-4.5137-1.3496-0.79015-1.6693 0.47981-3.4869-0.1543-5.3164-1.0391-1.8154-3.3316-1.1934-5.084-1.1934-0.94619-0.77632-2.1505-0.93347-3.3457-1.166-1.7359 1.0893-3.802 1.4013-5.9395 1.4004-2.622 0.30949-5.1606-0.31186-7.7031-0.15625-1.5168-0.07953-3.2403-0.2323-4.3555 0.95898l-1.998-0.883c-4.912-0.79-10.13 1.194-14.886-0.545l-1.5039-0.95898c-0.2386-0.13314-0.45534-0.1568-0.62305-0.13086z" transform="matrix(2.2593 0 0 2.2593 -.0000086184 0)"/>
   <path d="m47.064 19.018c-1.7493 1.0884-4.1379 1.2455-6.2754 1.0898-1.5833 0.07953-3.399-0.14222-4.9023 0.25977-1.3478 0.38816-1.2042 1.9445-1.5293 3.0605 0.32505 1.7523-0.002 3.7587-0.07813 5.498-0.07996 6.3523-0.06572 13.069 0.25976 19.502 0.15604 1.1126-0.9607 2.6341 0.31055 3.1113 3.2527-0.5576 6.8114-0.33594 10.141-0.33594l1.9199-0.4668c1.0223-0.63713 0.71078-2.0631 0.77734-3.0098-0.15604-4.6795-0.07813-8.9073-0.07813-13.744 0.29868-3.1762 0-6.1838 0-9.4395-0.16598-1.7497 0.31068-3.2427 0.07813-4.7461 0.07651-0.46856-0.23143-0.71359-0.62305-0.7793zm28.865 0.07813c-0.71364 0.40113-0.54297 1.5164-0.54297 2.2305v8.2207c-0.40501 5.9512 0.15268 11.605 0.07617 17.48-0.07651 1.1022-0.40156 1.9825 0 3.0078 1.1018 1.1161 2.9435 0.72848 4.3574 1.0371 0.63411-0.07607 1.3491-0.30991 2.0762-0.1543 1.5799 0 2.9966-0.09241 4.5898 0.07617 0.46813 0.07694 1.1821 0.38902 1.6602 0 0.07953-2.3065-0.07825-4.2122 0.1543-6.3535-0.07651-1.2708 0.07813-2.3975 0.07813-3.6562-0.31208-4.5239 0.16598-9.275 0-13.875 0.24552-2.2313 0.24846-4.2909-0.38867-6.5879-0.40156-0.86709-1.4133-0.62173-2.127-0.77734-2.3864 0-4.8628 0.54377-7.2363 0-0.79015-0.46856-1.7381-0.5594-2.6973-0.64844zm27.154 0c-3.4986 1.5794-7.7781 0.63652-11.592 1.0117-0.63411 0.15561-1.2717 0.63358-1.4277 1.3477-0.15258 8.2577-0.40166 15.16-0.07617 23.498-0.07651 2.1379-0.31412 4.1116-0.39062 6.3281 0.63411 0.88352 1.5952-0.31391 2.4648-0.23438 2.619-0.31122 5.4711 0.30949 8.2461 0 1.1122 0 2.5282 0.01649 3.0098-0.93359-0.0795-4.6 0.3003-9.3893 0.0781-13.824 0.46813-5.3141-0.15778-11.023 0.1543-16.492 0-0.31208-0.0752-0.70117-0.4668-0.70117zm-82.187 0.33789c-0.18284-0.0069-0.37277 0.03121-0.57031 0.12891-0.40156 0.32505-0.46659 0.80638-0.31055 1.2715 0.16901 1.5163-0.15984 3.2433 0.07617 4.668-0.31208 3.1762-0.07638 6.1872-0.23242 9.4395 0.07953 4.2023 0.38837 9.2881 0.15625 13.643 0.32505 0.55847-0.31221 1.2041 0.23242 1.7617 0.95916 1.0227 2.7753 0.85419 4.123 0.70117 2.8546 0.15302 5.5495 0.01681 8.248 0.72656 0.24552 0 0.38683-0.32134 0.4668-0.57031-0.48153-2.2935-0.06503-4.2805-0.31055-6.5879l0.1543-7.6777v-1.5039c0.30862-4.7729 0.07607-8.9605 0-13.484l-0.54297-1.1934c-0.86969-0.46856-1.8298-0.85765-2.9316-0.70117-0.40199 0.07607-0.80336 0.38998-1.2715 0.23437-1.8159-0.07694-3.8776 0.31157-5.627-0.38867-0.59521-0.05792-1.1116-0.44776-1.6602-0.4668zm49.898 0.31055c-0.28702 0.0389-0.54523 0.15407-0.77734 0.31055-0.5576 1.5794-0.41266 3.2287-0.49219 4.9023-0.40156 2.4526-3.5652 0.95739-5.0059 2.3086-0.31208 0.63368-0.08919 1.2596 0.54492 1.582 1.5168 0.38816 3.8268-0.40286 4.4609 1.582 0.15604 1.8284-0.15941 3.7336 0.07617 5.3926-0.07953 3.3326 0.14354 6.7341-0.41406 9.9863-0.71018 1.3512-2.5142 0.88214-3.709 1.1934-0.5576 0.15648-0.9484 0.63381-0.85547 1.1914 0.5442 1.6598 2.592 0.87036 3.8633 1.2715 0.5576 0.38902 1.1169 1.0285 1.1934 1.7383 0.15604 1.4411 0.000207 2.8809 0.15625 4.3047 0.63411 1.6598 2.852 0.79364 4.2793 1.1152 3.8902-0.24551 7.8578 0.07835 11.748-0.07813 0.23212-0.16858 0.6344-0.32457 0.54492-0.72656-0.15604-0.38816-0.55538-0.38845-0.88086-0.54492-4.5244-0.47721-8.8876-0.01207-13.332-0.41406-0.5442-0.31122-1.0114-0.63348-1.0879-1.2715-0.39162-5.7947-0.000208-12.694-0.15625-18.258 0-3.7208 0.0016-7.261 0.07813-11.15-0.23255-1.5172 0.38734-2.789 0.85547-4.0469l-0.23438-0.23242c-0.2788-0.1565-0.56846-0.196-0.85547-0.15625zm-18.49 0.10352c-0.28918 0.04668-0.56112 0.22301-0.64844 0.51953 0.71364 2.0506 0.24482 4.5008 0.57031 6.6387 0.000001 5.1611 0.01135 9.6861-0.07812 14.678-0.31208 4.2162 0.37737 8.3526-0.25977 12.398-0.9462 1.8293-3.3855 1.3465-5.1348 1.2695l-5.5508 0.15625c-1.2712-0.07607-2.7754-0.09199-3.8906 0.38867-0.07651 0.23255 0.0016 0.49283 0.07813 0.64844 0.40502 0.07692 0.86949 0.39021 1.2715 0.07813 1.6728 0.5576 3.4112-0.23309 5.084 0.07813l8.5586-0.15625c0.38816-0.23169 0.85372-0.33959 1.0098-0.80469 0.14264-1.9079 0.23458-4.0322 0.39062-5.9375 1.0387-1.9849 3.9815 0.29675 4.9277-1.6855-0.31208-2.6981-3.6582-0.22137-4.7734-2.2832-0.46467-2.3826-0.1545-4.539-0.31055-7.002 0.39162-3.3326-0.0013-6.1604 0.4668-9.4922 0.63714-1.1956 2.32-0.32553 3.3457-0.80274 0.5576-0.06657 0.88422-0.72567 0.80469-1.1934-0.95916-1.5172-3.1119-0.24619-4.3066-1.2715-0.46466-1.8293 0.18126-3.7353-0.43945-5.5508-0.04971-0.49449-0.63328-0.75163-1.1152-0.67383zm-2.8789 0.15625c-0.0925 0.0035-0.17709 0.01015-0.28516 0.05078-0.31208 0.46424-0.15463 1.1553-0.07813 1.7129-0.23255 5.085-0.0016 10.399-0.07813 15.404 0 4.2023 0.0014 7.9379-0.07813 12.137 0.38816 0.94662 0.63789 2.0623 1.6602 2.543 0.23557 0.000001 0.36328-0.23284 0.36328-0.54492v-8.2734c0-6.5883 0.23557-13.411 0-19.996 0.15604-0.54463-0.0512-1.3234-0.36328-1.8672-0.20316-0.40977-0.49485-1.1945-1.1406-1.166zm58.664 0.05078c-1.2712 0.54377 0.0795 1.8054 0 2.8281-0.0765 4.6035-0.001 9.2229 0.0781 13.979-0.15604 4.6043-0.0783 9.1969-0.23438 13.797-0.47806 1.6737 0.63582 3.7455-1.2695 4.6152-2.775 0.08046-5.5495 0.15507-8.248 0.07812-1.9819 0.15302-4.3702-0.72653-6.043 0.38867-0.07953 0.23255-0.09111 0.57095 0.23438 0.72656l3.8887 0.07813c3.9663-0.07603 7.858 0.23137 11.904-0.07813l0.72656-0.64844c0.23255-1.9045 0.54493-3.7974 0.54493-5.7832 0.71364-1.9045 3.0878-0.3133 4.4355-1.1934 0.5576-0.15561 0.71057-0.86732 0.6211-1.4258-0.94619-1.1014-2.6942-0.56878-4.0449-0.88086l-0.62304-0.46875c-0.62072-1.8284-0.5297-4.2885-0.31055-6.1973v-5.5508c0.0795-1.4273 0.15604-2.4519 0-3.8887 0.40156-2.3739 3.3202-0.46866 4.668-1.8164 0.15604-0.24552 0.23417-0.79018 0.0781-1.1152-0.48152-1.2717-2.0468-0.62151-3.0859-0.93359-2.8382-0.638-0.94673-4.0595-1.8164-5.9648-0.30862-0.46856-0.9463-0.54492-1.5039-0.54492zm-2.5684 0.13086c-0.0873-0.01297-0.20032 0.0055-0.31054 0.02539-0.38814 0.08904-0.31217 0.47877-0.38867 0.80469-0.15605 2.9938 0.31208 5.5868 0 8.5312-0.0796 6.3394-0.0781 12.554-0.0781 19.062-0.24552 1.1818 0.32508 2.2151 1.1152 3.0078 0.24897 0.30949 0.63632 0.31067 0.85546 0.07812 0.38817-2.061-0.21894-4.2903 0.15625-6.4316 0.0765-2.6315-0.23416-4.8527-0.0781-7.3926 0.15258-5.2371 0.23417-10.372 0.0781-15.377l-0.31054-0.93359c-0.33975-0.47634-0.42787-1.2886-1.0391-1.375zm-90.279 0.10352c-1.5833 1.1913-0.55589 3.5634-1.2695 5.1602-0.48152 2.061-2.8572 0.68837-4.125 1.4785-0.5576 0.23169-1.0489 0.81513-0.95898 1.4531 0.31208 0.71321 1.1007 0.62151 1.7383 0.93359 0.86968-0.15648 1.8306-0.15507 2.6973-0.07813 0.86968 0.40113 0.71163 1.3636 1.0371 2.0742-0.48152 4.9916 0.16893 9.9854-0.38867 15.146l-0.39062 0.38867c-1.2712 0.48152-2.865-0.21779-3.9668 0.64844-0.32202 0.32592-0.49232 0.79223-0.25977 1.1934 1.0387 1.5803 3.3476 0.31199 4.6953 1.3477 0.32503 1.7368 0.0646 3.8767 0.31055 5.7051 0.15604 0.4651 0.63371 0.96298 1.1152 1.0391 4.8226 0.23601 9.9978-0.0013 14.99 0.1543 0.40156-0.07608 0.86682-0.32467 0.77734-0.80274 0-0.31122-0.3128-0.46798-0.54492-0.54492-2.2308-0.15561-4.1345-0.15561-6.2754 0-1.9853 0.16944-4.1109-0.30981-6.1719-0.07813-0.88308-0.23169-2.3074-0.0019-2.543-1.3496-0.07651-2.539-0.3126-4.7712-0.38867-7.3906 0.31208-6.4327 0.0016-13.23 0.07813-19.891l0.15625-4.1504c-0.30856-0.86709 1.4234-2.4375-0.3125-2.4375zm2.9316 0.07813c-0.95959 0.40459-1.1956 1.4923-1.4277 2.3594v10.244c-0.32549 4.6838 0.23591 9.4278-0.07617 14.031-0.08991 1.6737 0.15604 3.192 0 4.7715 0.15604 0.32592-0.17077 1.0392 0.4668 1.1152 1.5799-0.95873 1.5798-2.9421 1.3477-4.6953 0-2.6186-0.06247-5.861 0.10352-8.4805 0-3.4882-0.16598-6.7573 0-10.166-0.40156-2.3869 0.22217-5.0566 0-7.5195-0.32203-0.39162-0.17982-0.8052 0.05273-1.1934-0.06657-0.15647-0.06524-0.54373-0.4668-0.4668zm55.215 0.20703c-0.23212-0.0026-0.39794 0.47381-0.69922 0.64844-0.86968 1.7523-0.38888 3.3993-0.54492 5.3945 0.07958 6.495-0.17085 12.705 0.07813 19.605-0.32548 1.7497 0.23396 3.4099-0.07813 5.2383 0.07953 0.24638-0.0013 0.77811 0.4668 0.70117 0.79015-0.15561 0.7918-1.0244 1.1934-1.582 0.07957-6.3532 0.15268-12.604 0.07617-18.725 0.38816-2.6955-0.15442-5.4081 0.07813-8.0137 0-1.0227 0.0015-2.1148-0.31055-3.0605-0.10028-0.14005-0.1824-0.20703-0.25977-0.20703zm-24.82 31.119c-0.11973-0.01381-0.2645-0.0049-0.41406 0.02539-2.5261 1.1921-5.7706 0.85957-8.5586 1.0117-1.1783 0.32592-2.2086-0.46424-3.3203 0-0.31208 0.16944-0.86704 0.49129-0.62109 0.95898 0.78972 1.4247 2.3612 0.37753 3.709 0.62305 1.9849 0 3.4872-0.08968 5.3926-0.15625h4.8516c0.32505 0 0.69901-0.38714 0.54297-0.69922-0.55458-0.55415-0.74304-1.6608-1.582-1.7637zm26.246 0.07813c-0.46813 0.40199-1.166 0.7921-1.166 1.4258 0 0.38902 0.37374 0.57236 0.69922 0.64844l8.4824-0.07813c1.5799-0.16858 3.0079 0.71449 4.5117 0.3125 0.40156-0.48066 0.24531-0.94416-0.15625-1.3496-1.7493-0.62071-4.2686-0.23361-6.25-0.31055-2.0644 0.15647-4.1397-0.39946-6.1211-0.64844zm28.971 0.07812c-2.0614 0.71405-4.4372 0.80155-6.7441 0.72461-1.9849 0-4.2649-0.4782-6.0938 0.39062-0.07651 0.38903 0.0782 0.94666 0.4668 1.1152h13.979c0.46461 0.15647 0.62284-0.41448 0.4668-0.72656-0.54464-0.71321-1.1151-1.5039-2.0742-1.5039zm-84.264 0.07617c-0.71364 0.32592-1.1935 0.94554-1.2695 1.7383 0.07608 0.71061 1.1294 0.41611 1.6074 0.49219 3.8768 0.48152 7.9105-0.40071 11.801 0.3125 0.46462-0.07953 0.4668-0.5569 0.4668-0.88281-0.148-0.557-0.789-0.62-1.267-0.776-3.087-0.312-6.666 0.234-9.83-0.311-0.468-0.232-0.87-0.648-1.504-0.572zm69.688 2.3086c-0.35315 0.01383-0.67165 0.20236-0.88086 0.64844-0.40156 0.54463-0.49232 1.3356-0.25977 2.0488 0.24552 0.48152 0.63576 0.95757 1.1934 1.0371 0.48109-0.07953 1.1157 0.06605 1.5039-0.33594 0.39162-0.71321 0.46608-1.7233-0.07813-2.3613-0.24292-0.59046-0.89023-1.0587-1.4785-1.0371zm-54.93 0.33789c-0.79015 0.31208-1.3496 0.86946-1.3496 1.7383 0.07607 0.79015-0.22125 1.6477 0.64844 2.0488 0.38816 0.30949 1.0278 0.38685 1.5059 0.1543 0.88265-0.32505 0.87048-1.413 0.93359-2.2031-0.23255-0.79275-0.94856-1.5023-1.7383-1.7383zm44.9 18.77c-0.10828-0.0057-0.22399-0.000188-0.33789 0.0078-0.15215 0.01124-0.29974 0.02539-0.41602 0.02539-1.6728 0.93301-3.7472 1.1832-5.8086 1.0898-2.6985 0.16944-5.2932-0.3125-7.9883-0.3125-1.0391 0.40199-2.7115-0.07768-2.957 1.3496-0.07953 2.1379-0.07953 3.9806 0 6.1211 0.5576 1.5042 1.0358 3.0851 1.5039 4.668 0.32505 2.6194 1.8307 4.7721 2.0762 7.3906 0 1.4411 1.8928 1.5827 2.0488 2.8535-0.63411 0.94662-2.0492 0.30914-3.0879 0.38867-0.46467 0-1.0354-0.06685-1.1914-0.54492 0.48109-1.3469 0.1671-2.9289-0.62305-4.0449-0.23558-0.15561-0.57052-0.38934-0.72656-0.07813-0.63713 1.5042-0.07984 3.0871-0.23242 4.7461 0.15258 2.1543 0.23417 3.7462 0.07813 5.8867 0.5576 1.1161-0.40156 2.219 0 3.3203 1.1917 0.47807 1.9162-0.7752 3.1113-0.62305l9.2578 0.0781c1.8288 0.0631 3.8016-0.0905 5.3184-1.0371 0.70024-0.86623 0.23263-2.1249 0.38867-3.1641-0.23255-4.1219 0.23558-7.9343 0-12.061 0.23558-5.3141-0.63552-10.257 0.07813-15.482 0.08753-0.44413-0.16735-0.56094-0.49219-0.57812zm-36.543 0.18945c-0.48152 0.24638-0.15505 0.62497-0.39062 0.93359 0.5442 3.3326 0.15463 7.0514 0.07813 10.477 0.23212 6.6618 0.07672 12.866 0.15625 19.375l0.4668 0.54297c1.3478 0.86709 3.1514 0.80469 4.8242 0.80469 1.7523-0.0795 3.5671 0.0781 5.3164 0.0781l2.7754-0.0781c1.2712-0.23169 2.4631 0.40263 3.7344 0.15625 0.46467-0.15562 0.38867-0.72621 0.38867-1.1152 0.15604-2.0739-0.15766-4.5261-0.07813-6.5879-0.15604-2.0739 0.47981-3.9675-0.1543-5.9395-0.31208-0.24552-0.79354-0.08926-1.0391 0.15625-1.0223 1.1022-0.62284 2.6992-0.4668 4.123-0.07953 0.39162-0.39934 0.62532-0.88086 0.54492-0.71364 0.0804-1.7496 0.15465-2.3867-0.23438-0.47806-0.95873 0.81535-1.0997 1.2969-1.6582 1.1917-3.2522 1.5837-6.7572 2.7754-10.09 0.63411-1.9045 0.77734-4.0593 0.77734-6.1211-0.23255-1.5034 0.80265-3.4884-1.0098-4.3555-4.3718-0.94597-8.8195 0.30885-13.254-0.15625-0.94619-0.31122-1.8145-0.77507-2.9297-0.85547zm42.014 0.43945c-0.24422-0.0043-0.51756 0.0698-0.77734 0.20898-1.0223 0.638 0.41406 1.3377 0.41406 2.127-0.07651 6.1077 0.31208 12.682 0 18.803 0 4.2793 0.23732 9.0408-0.1543 13.408-0.24552 0.71408-1.05 1.0392-1.7637 1.1152-5.7956 0.55759-11.969 0.15699-17.844 0.38867l-0.72656 0.33594c-0.40156 0.38902 0.09204 0.85815 0.41406 1.0898 5.8751 0.32592 11.503-0.15561 17.455 0 1.3508-0.38816 3.1008 0.4162 4.123-0.85547 0-1.9814 0.31096-3.9793 0.62305-5.8086 0.88309-1.7489 3.4746-0.002 4.5898-1.5059 0.23212-0.40113 0.32203-0.95745 0-1.2695-1.3512-1.1913-3.6306-0.00045-4.8223-1.4277-0.62416-2.137-0.16781-5.162-0.23438-7.625 0.22218-2.8546-0.15745-5.3927 0.07813-8.3242 0.63411-2.3099 3.3983-0.70108 4.7461-2.0488 0.07954-0.40113 0.23396-0.88246-0.07813-1.2715-1.2712-0.63713-2.9313-0.24286-4.123-0.88086-0.85628-1.4238-0.61149-3.4241-0.54492-5.084-0.04971-0.76854-0.64234-1.3612-1.375-1.375zm-46.449 0.36328c-0.54074-0.06484-1.2786 0.33408-1.5293 0.7793-0.15604 1.5803-0.39042 2.9323-0.23438 4.5117-0.5576 2.2313-3.0867 1.3357-4.7461 1.8164-0.48152 0.15648-0.88086 0.63576-0.88086 1.1934 0.78972 1.9054 3.0079 0.6338 4.5117 1.1914 1.4273 0.86709 1.0387 2.623 1.1152 4.0469-0.07648 3.8142-0.002 7.6241-0.07813 11.67-0.07997 0.63454 0.01409 1.5174-0.62305 1.998-1.5933 0.4651-3.5002-0.18292-4.7715 1.0879-0.24595 0.32246 0.000416 0.88345 0.3125 1.0391 1.4238 0.94663 3.8125-0.15506 4.9277 1.5039 0.62071 1.7532 0.15471 3.6709 0.4668 5.6523 0.15258 0.31209 0.55904 0.78135 1.0371 0.85742 2.9938 0.23601 6.0302-0.23437 9.0508-0.23437 2.4496 0.46855 4.8122-0.24552 7.2617 0 1.1917-0.24552 2.4121 0.0133 3.5273-0.38867 0.38816-0.31122-0.000208-0.78814-0.15625-1.0371l-6.3535-0.0781c-4.2023-0.38816-8.4143 0.17149-12.371 0.0781l-0.57031-0.4668c-0.23255-2.5425-0.15656-4.6916-0.38867-7.3144 0-1.1913 0.23212-2.6964 0-3.8125 0.31208-2.463 0.1543-4.6656 0.1543-7.209 0.07607-4.5239-0.31208-9.5305 0-14.135 0.15604-0.78929 0.89783-1.2552 0.96094-2.0488-0.02377-0.44176-0.29886-0.66142-0.62305-0.70117zm43.207 0.15625-0.38867 0.4668c-0.08948 1.9823-0.16944 4.187 0 6.1719v4.6172l-0.07813 2.7754c-0.07953 4.3683-0.01135 9.765 0.07813 14.213-0.48152 1.5042 0.3884 2.838 1.2715 3.8633 0.15604 0.16944 0.47845 0.40404 0.62109 0.0781l0.15625-9.1035c0-6.9108 0.15574-14.289-0.23242-21.344-0.31208-0.63714-0.7906-1.4262-1.4277-1.7383zm-41.158 0.62305c-0.40156 0.54463-0.95919 1.1794-1.1152 1.8926-0.15604 8.6337 0 17.456 0 26.428l-0.07813 3.1641c0 0.24638 0.23425 0.41601 0.4668 0.41601 0.95916-0.78928 1.5852-2.074 1.3496-3.3457 0-9.1274-0.0016-17.532-0.07813-26.014-0.31208-0.86623 0.78943-2.3085-0.54492-2.541zm19.658 11.619c-0.06743 0.01037-0.15116 0.0511-0.23242 0.12891-0.23255 1.1921-1.0228 2.5535-0.38867 3.7344 0.24551 0.23255 0.71424 0.15584 0.77734-0.15625l0.25976-3.2402c-0.05965-0.24119-0.21329-0.49535-0.41602-0.4668zm1.6602 2.8789c-0.0281-0.0017-0.05307 0.01242-0.07813 0.02539-0.06699 0.03458-0.10903 0.13246-0.12891 0.31055 0 0.24898-0.09101 0.62532 0.31055 0.54492 0.15604 0 0.15787-0.15398 0.23438-0.23438 0.10244-0.25416-0.14165-0.62834-0.33789-0.64648zm-19.581 16.368c-0.86968 0.48153-1.4132 1.1812-1.7383 2.127 0 0.40199 0.4656 0.33789 0.70117 0.33789 1.4372-0.32505 3.0213 0.23318 4.5117 0.15625l12.863 0.0762 0.54492-0.31055c0.15605-0.24551 0.33768-0.57214 0.18164-0.80469-0.63713-0.5576-1.6727-0.46679-2.4629-0.46679-4.0463 0-8.2505 0.15519-12.217-0.1543-0.86968-0.23514-1.5151-0.80447-2.3848-0.96094zm38.02 0c-0.26021-0.004-0.54413 0.13797-0.88086 0.49414-3.7208 1.0357-7.6254 0.46895-11.516 0.6211-1.5833 0-3.3202-0.29374-4.668 0.41601-0.32548 0.39249 0.06524 0.84173 0.4668 1.0898 2.9311-0.0795 5.9638 0.15301 8.8184 0 2.9276 0 5.6146-0.16858 8.5586 0 0.38816-0.0795 1.1932-0.0666 1.0371-0.70118-0.53512-0.59477-1.0362-1.9044-1.8164-1.9199zm-19.062 2.5938c-0.07435-0.00088-0.15332 0.008-0.23242 0.0273-0.5442 0.0769-0.80174 0.49151-1.1934 0.80273-0.16598 0.70111-0.5576 1.568 0 2.2051 0.15604 0.54463 0.71389 1.1152 1.2715 1.1152 0.5442 0 1.1121-0.0922 1.3477-0.57031-0.07957-0.94576 0.39-1.8036-0.07812-2.5938-0.20316-0.47634-0.59524-0.97597-1.1152-0.98633z" transform="matrix(2.2593 0 0 2.2593 -.0000086184 0)" fill="#fff"/>
  <path d="m81.912 28.213c-1.1695 0.02516-2.3226 0.12842-3.5176 0.01172-0.31208 0.07607-0.62305 0.40065-0.62305 0.72656 0 0.4772 0.54338 0.54338 0.85547 0.85547 0.63714 1.0253 0.49414 2.2951 0.49414 3.3965-0.07953 2.6955-0.15463 5.0078-0.07813 7.5469-0.15604 0.79015-1.5183 1.1777-0.80469 2.127l3.1914 0.07813c1.6598-0.63368-0.57206-1.5033-0.41602-2.4629-0.07953-1.1014-0.1418-2.282 0.25977-3.3203 0.23212-0.07694 0.52977-0.09013 0.69922 0.15625 0.71364 1.5794 1.8176 2.9302 2.6973 4.4336 0.39162 0.63454 1.0263 1.1922 1.8164 1.1152 0.31208-0.15561 0.79249-0.38691 0.62305-0.85547-1.4904-1.1913-1.7893-3.0337-3.0605-4.4609-0.24552-0.4772-0.07651-0.78887 0-1.2695 1.0257-0.79015 2.1291-1.7499 2.5938-2.9316 0.15604-0.95873-0.000208-1.8276-0.15625-2.6973-0.46467-1.4273-2.0507-2.1289-3.3984-2.4375-0.39583-0.0201-0.78595-0.02011-1.1758-0.01172zm14.74 0.01172c-0.9462 0.30863-2.2162-0.24933-3.0859 0.38867-0.32203 0.70024 0.31237 1.26 0.54492 1.8945-0.07651 3.4122 0.47948 6.8972-0.07813 10.398-0.15604 0.55847-0.95757 0.86818-1.0371 1.4258-0.15604 0.23255 0.15612 0.54697 0.38867 0.62305 1.1947 0 2.2435-0.07748 3.3457 0.07813 1.4273-0.63713-0.23404-1.4931-0.31055-2.2832 0.07651-3.5782-0.23591-6.7553 0.07617-10.164 0.31208-0.638 1.0896-1.1148 0.93359-1.8945-0.06311-0.38902-0.4523-0.39072-0.77734-0.4668zm-73.318 0.15625c-0.79015 0.32159-2.2918-0.2352-2.3848 0.88086 0 0.45472 0.55679 0.53151 0.80273 0.85742 1.4273 1.9054 1.7395 4.1871 2.6191 6.248 0.46769 1.0357 0.47767 2.2456 1.1152 3.1914 0.23212 1.2717 0.46704 2.763 1.7383 3.2402 0.47764 0 0.70104-0.38713 0.93359-0.69922 1.2712-3.8868 2.074-8.0163 3.3457-11.826 0.16901-0.31208 0.61938-0.651 0.4668-1.1152-0.48152-0.5576-1.1789-0.54492-1.8926-0.54492-0.38859 0.16858-0.96278 0.31289-0.88281 0.93359 1.4238 1.9054-0.14315 4.2916-0.38867 6.2773-0.31208 0.8792-0.15628 2.3073-1.2715 2.4629-0.71364-0.78928-0.80661-1.8276-1.1152-2.6973-0.71364-1.4238-1.0263-2.9412-1.5039-4.5371 0-0.71407 0.57355-1.0792 0.72656-1.7129-0.23255-1.0262-1.5189-0.88291-2.3086-0.95898zm18.725 0c-1.7528 0.15215-3.7981 0.06481-5.627 0.4668-0.62071 0.78928 0.64831 1.2448 0.88086 2.0488 0.07607 3.1762-0.000138 6.2639-0.07617 9.5957 0 0.88352-1.4401 1.7476-0.33789 2.3848 1.6728 0.07694 3.2529 0.23643 4.8496 0.3125 0.94576 0.0804 2.0495 0.1803 2.5938-0.7793 0.32548-0.5576 0.73945-1.2834 0.33789-1.918 0-0.38816-0.49606-0.77866-0.80469-0.62305-0.46813 0.71062-0.60883 1.5058-1.4785 1.8145-0.95916 0-2.3961 0.57092-3.0332-0.38867-0.07651-1.7359-0.78985-4.1976 0.23242-5.5488 1.2712-0.86623 2.2416 1.5815 3.1113 0.07813 0.31208-0.638 0.23224-1.5163-0.23242-2.1543-0.95916 0.0804-1.4258 1.3609-2.541 0.88281-1.1917-0.71321-0.57236-2.5561-0.64844-3.7344 0.15604-0.638 0.71516-1.0117 1.4258-1.0117 1.0391-0.07694 1.5071 1.0883 2.3867 1.4004 0.53123-0.15647 0.52991-0.77785 0.4668-1.166-0.5576-0.5576-0.47019-1.7406-1.5059-1.6602zm40.33 1.0898c1.0819-0.09423 1.8538 0.87506 2.127 1.8398 0.46467 0.86882 0.23191 1.8933-0.15625 2.6973-0.5576 0.71321-1.2847 1.4291-2.2305 1.3496-1.9054-0.24638-0.71347-2.5445-0.95898-3.6562 0.08948-0.70111-0.15652-1.8953 0.72656-2.127 0.16685-0.06051 0.33744-0.09055 0.49219-0.10352zm-27.854 52.076c-1.1952 1.0262-2.7998 0.69998-4.3066 0.62305-0.87963 0.1435-1.9836 0.23354-2.6973-0.39062-0.38859-0.24552-0.93185-0.16675-1.0879 0.23438-0.24552 1.0227-0.97383 2.0511-0.57226 3.0859 0.23212 0.31208 0.54675 0.2346 0.7793 0.07813 0.32505-0.86882 1.1264-1.4893 1.9961-1.7383 0.40156 0.0804 0.88268 0.47963 1.1152 0.80469l-0.23242 3.8633c0.07651 1.9054-0.09132 3.9821 0.07813 5.8105 0.38816 1.2717-1.8184 1.8186-0.7793 3.0859 0.38816 0.15648 0.99883 0.23601 1.4004 0 0.86968 0 1.9089 0.40353 2.543-0.31055 0.4811-0.71321-0.37753-1.1026-0.62305-1.6602-0.07953-2.386-0.10372-5.1612-0.25977-7.625 0.40502-1.1947-0.46523-2.6335 0.33789-3.5801 1.1818-0.63714 1.1934 1.1324 2.3086 1.0391 0.86623-0.46424 0.46688-1.7514 0.85547-2.6211 0.06614-0.38816-0.45391-0.69835-0.85547-0.69922zm20.1 0.67383c-0.36439-0.0095-0.78565 0.16272-1.0645 0.36328-1.5168-0.15561-3.3435-0.09119-4.2266 1.3223-0.54463 1.0391-0.94648 2.1544-0.54492 3.3457 1.1018 2.775 4.8356 2.9972 5.8613 5.8613 0.07651 0.86968-0.21854 1.7662-1.0117 2.2305-1.0357 0.16944-2.1399 0.1535-2.8535-0.72656-0.95916-0.48066-0.49222-1.8926-1.6074-1.8926-1.1917 0.55847-0.29595 2.1408-0.54492 3.2422 0.09293 0.23255 0.15676 0.64725 0.54492 0.57031 1.1947-1.0253 2.2441 0.46561 3.502 0.38867 1.1152-0.16858 2.2311-0.40103 3.0078-1.3477 0.79318-0.88265 1.0385-2.2181 0.95898-3.3203-0.56754-3.3456-4.4462-3.4996-6.043-6.043-0.31208-0.54377-0.23396-1.1798 0.07813-1.7383 0.72358-0.78928 1.7495-0.23037 2.6191-0.1543 0.71019 0.38902 0.97578 1.8902 1.998 1.2695 0.31208-0.80312 0.23558-1.829 0-2.6191 0-0.55068-0.30944-0.74158-0.67383-0.75195z" transform="matrix(2.2593 0 0 2.2593 -.0000086184 0)"/>
 </g>
</svg>